<svg width="329" height="43" viewBox="0 0 329 43" fill="none" xmlns="http://www.w3.org/2000/svg">
<path d="M62.2074 41.9996H53.9688L66.522 5.63601H76.4297L88.9652 41.9996H80.7266L71.6179 13.9457H71.3338L62.2074 41.9996ZM61.6925 27.7063H81.1527V33.7077H61.6925V27.7063Z" fill="white"/>
<path d="M93.1999 41.9996V14.7269H100.533V19.4854H100.817C101.314 17.7927 102.149 16.5143 103.321 15.6502C104.493 14.7743 105.842 14.3363 107.369 14.3363C107.748 14.3363 108.156 14.36 108.594 14.4073C109.032 14.4547 109.417 14.5198 109.748 14.6026V21.3143C109.393 21.2077 108.902 21.113 108.275 21.0302C107.647 20.9473 107.073 20.9059 106.552 20.9059C105.44 20.9059 104.445 21.1486 103.569 21.6339C102.705 22.1074 102.019 22.7702 101.51 23.6225C101.012 24.4748 100.764 25.4573 100.764 26.57V41.9996H93.1999Z" fill="white"/>
<path d="M129.532 14.7269V20.4087H113.108V14.7269H129.532ZM116.837 8.19283H124.401V33.619C124.401 34.3174 124.508 34.8619 124.721 35.2525C124.934 35.6313 125.23 35.8976 125.608 36.0515C125.999 36.2054 126.449 36.2823 126.958 36.2823C127.313 36.2823 127.668 36.2527 128.023 36.1935C128.378 36.1225 128.651 36.0692 128.84 36.0337L130.03 41.6623C129.651 41.7807 129.118 41.9168 128.432 42.0707C127.745 42.2364 126.911 42.337 125.928 42.3725C124.105 42.4435 122.507 42.2009 121.134 41.6445C119.773 41.0882 118.713 40.2241 117.956 39.0522C117.198 37.8803 116.825 36.4007 116.837 34.6133V8.19283Z" fill="white"/>
<path d="M134.46 41.9996V14.7269H142.024V41.9996H134.46ZM138.259 11.2113C137.135 11.2113 136.17 10.8384 135.365 10.0927C134.572 9.33511 134.176 8.42957 134.176 7.37607C134.176 6.3344 134.572 5.4407 135.365 4.69496C136.17 3.93738 137.135 3.55859 138.259 3.55859C139.384 3.55859 140.343 3.93738 141.136 4.69496C141.941 5.4407 142.343 6.3344 142.343 7.37607C142.343 8.42957 141.941 9.33511 141.136 10.0927C140.343 10.8384 139.384 11.2113 138.259 11.2113Z" fill="white"/>
<path d="M162.749 14.7269V20.4087H145.917V14.7269H162.749ZM149.77 41.9996V12.756C149.77 10.7792 150.154 9.1398 150.924 7.83771C151.705 6.53563 152.77 5.55907 154.12 4.90803C155.469 4.25698 157.002 3.93146 158.718 3.93146C159.878 3.93146 160.938 4.02024 161.897 4.1978C162.867 4.37536 163.589 4.53516 164.063 4.6772L162.713 10.359C162.417 10.2643 162.051 10.1755 161.613 10.0927C161.186 10.0098 160.748 9.9684 160.299 9.9684C159.186 9.9684 158.411 10.2288 157.973 10.7496C157.535 11.2586 157.316 11.9748 157.316 12.8981V41.9996H149.77Z" fill="white"/>
<path d="M174.17 42.5146C172.43 42.5146 170.88 42.2127 169.518 41.609C168.157 40.9935 167.08 40.088 166.287 38.8924C165.506 37.685 165.115 36.1817 165.115 34.3825C165.115 32.8673 165.393 31.5948 165.949 30.565C166.506 29.5352 167.263 28.7066 168.222 28.0792C169.181 27.4518 170.27 26.9783 171.489 26.6587C172.72 26.3391 174.01 26.1142 175.36 25.984C176.946 25.8183 178.224 25.6644 179.195 25.5224C180.166 25.3685 180.87 25.1436 181.308 24.8477C181.746 24.5517 181.965 24.1138 181.965 23.5337V23.4272C181.965 22.3027 181.61 21.4326 180.9 20.8171C180.201 20.2016 179.207 19.8938 177.917 19.8938C176.555 19.8938 175.472 20.1957 174.667 20.7994C173.863 21.3912 173.33 22.137 173.069 23.0366L166.074 22.4684C166.429 20.8112 167.127 19.3789 168.169 18.1715C169.211 16.9523 170.554 16.0172 172.199 15.3661C173.857 14.7032 175.774 14.3718 177.952 14.3718C179.467 14.3718 180.917 14.5494 182.302 14.9045C183.699 15.2596 184.936 15.81 186.013 16.5558C187.102 17.3015 187.961 18.2603 188.588 19.4322C189.215 20.5922 189.529 21.9831 189.529 23.6048V41.9996H182.356V38.2177H182.143C181.705 39.07 181.119 39.8216 180.385 40.4727C179.651 41.1119 178.769 41.6149 177.739 41.9819C176.709 42.337 175.52 42.5146 174.17 42.5146ZM176.336 37.2944C177.449 37.2944 178.432 37.0754 179.284 36.6374C180.136 36.1876 180.805 35.5839 181.29 34.8264C181.776 34.0688 182.018 33.2106 182.018 32.2518V29.3576C181.782 29.5115 181.456 29.6535 181.042 29.7837C180.639 29.9021 180.184 30.0146 179.675 30.1211C179.166 30.2158 178.657 30.3046 178.148 30.3874C177.639 30.4585 177.177 30.5236 176.763 30.5827C175.875 30.713 175.099 30.9201 174.437 31.2042C173.774 31.4883 173.259 31.873 172.892 32.3583C172.525 32.8318 172.341 33.4237 172.341 34.1339C172.341 35.1637 172.714 35.9509 173.46 36.4954C174.218 37.0281 175.176 37.2944 176.336 37.2944Z" fill="white"/>
<path d="M207.72 42.5323C204.926 42.5323 202.523 41.9405 200.511 40.7567C198.51 39.5612 196.972 37.904 195.894 35.7852C194.829 33.6663 194.296 31.2279 194.296 28.4698C194.296 25.6763 194.835 23.226 195.912 21.119C197.001 19.0001 198.546 17.3488 200.546 16.1651C202.547 14.9696 204.926 14.3718 207.684 14.3718C210.063 14.3718 212.147 14.8039 213.934 15.668C215.722 16.5321 217.136 17.7454 218.178 19.3079C219.219 20.8704 219.794 22.7051 219.9 24.8121H212.762C212.561 23.4509 212.028 22.3559 211.164 21.5273C210.312 20.6869 209.193 20.2667 207.808 20.2667C206.637 20.2667 205.613 20.5863 204.737 21.2255C203.873 21.8529 203.198 22.7702 202.713 23.9776C202.227 25.185 201.985 26.6469 201.985 28.3633C201.985 30.1033 202.221 31.583 202.695 32.8022C203.18 34.0214 203.861 34.9506 204.737 35.5898C205.613 36.229 206.637 36.5487 207.808 36.5487C208.673 36.5487 209.448 36.3711 210.134 36.016C210.833 35.6609 211.407 35.146 211.857 34.4712C212.318 33.7847 212.62 32.962 212.762 32.0032H219.9C219.782 34.0865 219.213 35.9213 218.195 37.5075C217.189 39.0818 215.798 40.3129 214.023 41.2006C212.247 42.0884 210.146 42.5323 207.72 42.5323Z" fill="white"/>
<path d="M239.249 14.7269V20.4087H222.825V14.7269H239.249ZM226.554 8.19283H234.118V33.619C234.118 34.3174 234.224 34.8619 234.438 35.2525C234.651 35.6313 234.946 35.8976 235.325 36.0515C235.716 36.2054 236.166 36.2823 236.675 36.2823C237.03 36.2823 237.385 36.2527 237.74 36.1935C238.095 36.1225 238.367 36.0692 238.557 36.0337L239.746 41.6623C239.368 41.7807 238.835 41.9168 238.148 42.0707C237.462 42.2364 236.627 42.337 235.645 42.3725C233.822 42.4435 232.224 42.2009 230.851 41.6445C229.49 41.0882 228.43 40.2241 227.673 39.0522C226.915 37.8803 226.542 36.4007 226.554 34.6133V8.19283Z" fill="white"/>
<path d="M261.666 30.3874V14.7269H269.23V41.9996H261.968V37.0458H261.684C261.068 38.6438 260.044 39.9282 258.612 40.8988C257.191 41.8694 255.457 42.3548 253.409 42.3548C251.587 42.3548 249.983 41.9405 248.598 41.1119C247.213 40.2833 246.13 39.1055 245.348 37.5785C244.579 36.0515 244.188 34.2227 244.176 32.092V14.7269H251.74V30.7425C251.752 32.3524 252.184 33.6249 253.037 34.56C253.889 35.4951 255.031 35.9627 256.463 35.9627C257.375 35.9627 258.227 35.7556 259.02 35.3413C259.813 34.9151 260.453 34.2878 260.938 33.4592C261.435 32.6306 261.678 31.6067 261.666 30.3874Z" fill="white"/>
<path d="M297.972 22.5039L291.047 22.93C290.929 22.3382 290.674 21.8055 290.284 21.332C289.893 20.8467 289.378 20.462 288.739 20.1779C288.111 19.882 287.36 19.734 286.484 19.734C285.312 19.734 284.324 19.9826 283.519 20.4798C282.714 20.9651 282.311 21.6161 282.311 22.4329C282.311 23.0839 282.572 23.6344 283.093 24.0842C283.613 24.534 284.507 24.895 285.774 25.1673L290.71 26.1616C293.361 26.7061 295.338 27.582 296.64 28.7894C297.942 29.9968 298.593 31.583 298.593 33.5479C298.593 35.3353 298.066 36.9038 297.013 38.2532C295.971 39.6026 294.539 40.6561 292.716 41.4137C290.905 42.1594 288.816 42.5323 286.448 42.5323C282.838 42.5323 279.962 41.7807 277.819 40.2773C275.688 38.7622 274.44 36.7025 274.073 34.0984L281.512 33.7077C281.737 34.8086 282.282 35.649 283.146 36.229C284.01 36.7972 285.117 37.0813 286.466 37.0813C287.792 37.0813 288.857 36.8268 289.662 36.3178C290.479 35.797 290.893 35.1282 290.905 34.3114C290.893 33.6249 290.603 33.0626 290.035 32.6246C289.467 32.1748 288.591 31.8316 287.407 31.5948L282.684 30.6538C280.021 30.1211 278.038 29.1978 276.736 27.8839C275.446 26.57 274.801 24.895 274.801 22.859C274.801 21.1071 275.274 19.5979 276.221 18.3313C277.18 17.0648 278.523 16.0882 280.252 15.4016C281.992 14.7151 284.028 14.3718 286.36 14.3718C289.804 14.3718 292.515 15.0998 294.492 16.5558C296.48 18.0117 297.64 19.9944 297.972 22.5039Z" fill="white"/>
<path d="M315.785 42.5323C312.98 42.5323 310.565 41.9641 308.541 40.8278C306.529 39.6796 304.978 38.0579 303.889 35.9627C302.8 33.8557 302.255 31.364 302.255 28.4876C302.255 25.6822 302.8 23.2201 303.889 21.1012C304.978 18.9824 306.511 17.3311 308.488 16.1474C310.476 14.9637 312.808 14.3718 315.483 14.3718C317.283 14.3718 318.958 14.6618 320.508 15.2418C322.071 15.81 323.432 16.6682 324.592 17.8164C325.764 18.9646 326.675 20.4087 327.326 22.1488C327.977 23.877 328.303 25.9012 328.303 28.2212V30.2987H305.274V25.6112H321.183C321.183 24.5221 320.946 23.5574 320.473 22.717C319.999 21.8765 319.342 21.2196 318.502 20.7461C317.673 20.2608 316.708 20.0181 315.608 20.0181C314.459 20.0181 313.441 20.2844 312.554 20.8171C311.678 21.338 310.991 22.0423 310.494 22.93C309.997 23.806 309.742 24.7826 309.73 25.8597V30.3164C309.73 31.6658 309.979 32.8318 310.476 33.8143C310.985 34.7968 311.701 35.5543 312.625 36.087C313.548 36.6197 314.643 36.886 315.909 36.886C316.75 36.886 317.519 36.7676 318.218 36.5309C318.916 36.2942 319.514 35.939 320.011 35.4656C320.508 34.9921 320.887 34.4121 321.147 33.7255L328.143 34.1871C327.788 35.868 327.06 37.3358 325.959 38.5906C324.87 39.8335 323.462 40.8041 321.733 41.5025C320.017 42.189 318.034 42.5323 315.785 42.5323Z" fill="white"/>
<path d="M16.6667 41.6673V10.4173C16.6667 9.86478 16.4472 9.33488 16.0565 8.94418C15.6658 8.55348 15.1359 8.33398 14.5833 8.33398H4.16667C3.0616 8.33398 2.00179 8.77297 1.22039 9.55437C0.438987 10.3358 0 11.3956 0 12.5007V37.5006C0 38.6057 0.438987 39.6655 1.22039 40.4469C2.00179 41.2283 3.0616 41.6673 4.16667 41.6673H29.1667C30.2717 41.6673 31.3315 41.2283 32.1129 40.4469C32.8943 39.6655 33.3333 38.6057 33.3333 37.5006V27.084C33.3333 26.5314 33.1138 26.0015 32.7231 25.6108C32.3324 25.2201 31.8025 25.0007 31.25 25.0007H0" fill="#5F51C8"/>
<path d="M39.5833 0H27.0833C25.9327 0 25 0.93274 25 2.08333V14.5833C25 15.7339 25.9327 16.6667 27.0833 16.6667H39.5833C40.7339 16.6667 41.6667 15.7339 41.6667 14.5833V2.08333C41.6667 0.93274 40.7339 0 39.5833 0Z" fill="#695AE0"/>
</svg>
